<svg width="195" height="84" viewBox="0 0 195 84" fill="none" xmlns="http://www.w3.org/2000/svg">
<rect width="195" height="84" rx="42" fill="#2E2E2E"/>
<path d="M152.266 37.3707C152.266 37.3299 152.266 37.2891 152.266 37.2484C152.268 32.143 148.21 28.0024 143.202 28C140.156 27.9985 137.313 29.5563 135.633 32.1468C132.276 31.0044 128.646 32.8526 127.525 36.275C127.308 36.9395 127.196 37.6353 127.195 38.3359C127.195 38.3821 127.195 38.4289 127.195 38.4756C124.914 39.0797 123.546 41.4545 124.138 43.7797C124.626 45.6951 126.321 47.0333 128.262 47.0361H137.829C138.123 47.0361 138.362 46.7927 138.362 46.4924C138.362 46.1921 138.123 45.9486 137.829 45.9486H128.262C126.495 45.9379 125.07 44.4686 125.081 42.6667C125.09 41.0513 126.258 39.6862 127.826 39.4566C128.109 39.4179 128.311 39.1601 128.287 38.871C128.272 38.6959 128.262 38.5159 128.262 38.3359C128.266 35.3289 130.66 32.8943 133.61 32.8982C134.31 32.8991 135.002 33.0401 135.649 33.3131C135.893 33.4169 136.176 33.3214 136.312 33.0891C138.562 29.2121 143.469 27.9285 147.272 30.2221C149.708 31.6912 151.201 34.363 151.199 37.2484C151.199 37.4284 151.194 37.6029 151.18 37.778C151.155 38.0705 151.363 38.3303 151.649 38.3647C153.695 38.6229 155.149 40.5234 154.896 42.6097C154.665 44.5131 153.081 45.9441 151.199 45.9486C151.039 45.9488 150.878 45.9392 150.719 45.9198C150.643 45.9102 150.565 45.9201 150.493 45.9486H142.112C141.817 45.9486 141.578 46.1921 141.578 46.4924C141.578 46.7927 141.817 47.0361 142.112 47.0361H150.666C150.707 47.036 150.747 47.0304 150.786 47.0193C150.921 47.0307 151.059 47.0361 151.199 47.0361C153.851 47.0362 156 44.8452 156 42.1423C156 39.8584 154.45 37.8782 152.266 37.3707Z" fill="#A3A3A3"/>
<path d="M144.146 50.4581L140.531 54.1437V38.8797C140.531 38.5794 140.292 38.3359 139.997 38.3359C139.703 38.3359 139.464 38.5794 139.464 38.8797V54.1437L135.849 50.4581C135.637 50.2494 135.299 50.2554 135.094 50.4714C134.895 50.6821 134.895 51.0162 135.094 51.2269L139.62 55.8408C139.829 56.0531 140.166 56.0531 140.375 55.8408L144.901 51.2269C145.105 51.0109 145.099 50.6667 144.888 50.4581C144.681 50.2545 144.353 50.2545 144.146 50.4581Z" fill="#A3A3A3"/>
<path d="M29.1553 39V29.0469H31.9648C32.8307 29.0469 33.5964 29.2383 34.2617 29.6211C34.9271 30.0039 35.4398 30.5485 35.7998 31.2549C36.1644 31.9613 36.349 32.7725 36.3535 33.6885V34.3242C36.3535 35.263 36.1712 36.0856 35.8066 36.792C35.4466 37.4984 34.9294 38.0407 34.2549 38.4189C33.585 38.7972 32.8034 38.9909 31.9102 39H29.1553ZM30.4678 30.127V37.9268H31.8486C32.8604 37.9268 33.6465 37.6123 34.207 36.9834C34.7721 36.3545 35.0547 35.459 35.0547 34.2969V33.7158C35.0547 32.5856 34.7881 31.7083 34.2549 31.084C33.7262 30.4551 32.9743 30.1361 31.999 30.127H30.4678ZM37.8096 35.2334C37.8096 34.5088 37.9508 33.8571 38.2334 33.2783C38.5205 32.6995 38.917 32.2529 39.4229 31.9385C39.9333 31.624 40.5143 31.4668 41.166 31.4668C42.1732 31.4668 42.9867 31.8154 43.6064 32.5127C44.2308 33.21 44.543 34.1374 44.543 35.2949V35.3838C44.543 36.1038 44.404 36.751 44.126 37.3252C43.8525 37.8949 43.4583 38.3392 42.9434 38.6582C42.4329 38.9772 41.8451 39.1367 41.1797 39.1367C40.1771 39.1367 39.3636 38.7881 38.7393 38.0908C38.1195 37.3936 37.8096 36.4707 37.8096 35.3223V35.2334ZM39.0811 35.3838C39.0811 36.2041 39.2702 36.8626 39.6484 37.3594C40.0312 37.8561 40.5417 38.1045 41.1797 38.1045C41.8223 38.1045 42.3327 37.8538 42.7109 37.3525C43.0892 36.8467 43.2783 36.1403 43.2783 35.2334C43.2783 34.4222 43.0846 33.766 42.6973 33.2646C42.3145 32.7588 41.804 32.5059 41.166 32.5059C40.5417 32.5059 40.0381 32.7542 39.6553 33.251C39.2725 33.7477 39.0811 34.4587 39.0811 35.3838ZM52.6777 37.2568L54.0996 31.6035H55.3643L53.2109 39H52.1855L50.3877 33.3945L48.6377 39H47.6123L45.4658 31.6035H46.7236L48.1797 37.1406L49.9023 31.6035H50.9209L52.6777 37.2568ZM57.8525 31.6035L57.8936 32.5332C58.4587 31.8223 59.1969 31.4668 60.1084 31.4668C61.6715 31.4668 62.46 32.3486 62.4736 34.1123V39H61.209V34.1055C61.2044 33.5723 61.0814 33.1781 60.8398 32.9229C60.6029 32.6676 60.2314 32.54 59.7256 32.54C59.3154 32.54 58.9554 32.6494 58.6455 32.8682C58.3356 33.0869 58.0941 33.374 57.9209 33.7295V39H56.6562V31.6035H57.8525ZM65.7549 39H64.4902V28.5H65.7549V39ZM67.4502 35.2334C67.4502 34.5088 67.5915 33.8571 67.874 33.2783C68.1611 32.6995 68.5576 32.2529 69.0635 31.9385C69.5739 31.624 70.1549 31.4668 70.8066 31.4668C71.8138 31.4668 72.6273 31.8154 73.2471 32.5127C73.8714 33.21 74.1836 34.1374 74.1836 35.2949V35.3838C74.1836 36.1038 74.0446 36.751 73.7666 37.3252C73.4932 37.8949 73.099 38.3392 72.584 38.6582C72.0736 38.9772 71.4857 39.1367 70.8203 39.1367C69.8177 39.1367 69.0042 38.7881 68.3799 38.0908C67.7601 37.3936 67.4502 36.4707 67.4502 35.3223V35.2334ZM68.7217 35.3838C68.7217 36.2041 68.9108 36.8626 69.2891 37.3594C69.6719 37.8561 70.1823 38.1045 70.8203 38.1045C71.4629 38.1045 71.9733 37.8538 72.3516 37.3525C72.7298 36.8467 72.9189 36.1403 72.9189 35.2334C72.9189 34.4222 72.7253 33.766 72.3379 33.2646C71.9551 32.7588 71.4447 32.5059 70.8066 32.5059C70.1823 32.5059 69.6787 32.7542 69.2959 33.251C68.9131 33.7477 68.7217 34.4587 68.7217 35.3838ZM80.3359 39C80.263 38.8542 80.2038 38.5944 80.1582 38.2207C79.5703 38.8314 78.8685 39.1367 78.0527 39.1367C77.3236 39.1367 76.7243 38.9316 76.2549 38.5215C75.79 38.1068 75.5576 37.5827 75.5576 36.9492C75.5576 36.179 75.8493 35.582 76.4326 35.1582C77.0205 34.7298 77.8454 34.5156 78.9072 34.5156H80.1377V33.9346C80.1377 33.4925 80.0055 33.1416 79.7412 32.8818C79.4769 32.6175 79.0872 32.4854 78.5723 32.4854C78.1211 32.4854 77.7428 32.5993 77.4375 32.8271C77.1322 33.055 76.9795 33.3307 76.9795 33.6543H75.708C75.708 33.2852 75.8379 32.9297 76.0977 32.5879C76.362 32.2415 76.7174 31.9681 77.1641 31.7676C77.6152 31.5671 78.1097 31.4668 78.6475 31.4668C79.4997 31.4668 80.1673 31.681 80.6504 32.1094C81.1335 32.5332 81.3841 33.1188 81.4023 33.8662V37.2705C81.4023 37.9495 81.4889 38.4896 81.6621 38.8906V39H80.3359ZM78.2373 38.0361C78.6338 38.0361 79.0098 37.9336 79.3652 37.7285C79.7207 37.5234 79.9782 37.2568 80.1377 36.9287V35.4111H79.1465C77.597 35.4111 76.8223 35.8646 76.8223 36.7715C76.8223 37.168 76.9544 37.4779 77.2188 37.7012C77.4831 37.9245 77.8226 38.0361 78.2373 38.0361ZM83.0771 35.2402C83.0771 34.1055 83.346 33.194 83.8838 32.5059C84.4215 31.8132 85.1257 31.4668 85.9961 31.4668C86.862 31.4668 87.5479 31.763 88.0537 32.3555V28.5H89.3184V39H88.1562L88.0947 38.207C87.5889 38.8268 86.8848 39.1367 85.9824 39.1367C85.1257 39.1367 84.4261 38.7858 83.8838 38.084C83.346 37.3822 83.0771 36.4661 83.0771 35.3359V35.2402ZM84.3418 35.3838C84.3418 36.2223 84.515 36.8786 84.8613 37.3525C85.2077 37.8265 85.6862 38.0635 86.2969 38.0635C87.099 38.0635 87.6846 37.7035 88.0537 36.9834V33.5859C87.6755 32.8887 87.0944 32.54 86.3105 32.54C85.6908 32.54 85.2077 32.7793 84.8613 33.2578C84.515 33.7363 84.3418 34.445 84.3418 35.3838ZM31.377 53.1475L33.0996 47.6035H34.4531L31.4795 56.1416C31.0192 57.3721 30.2878 57.9873 29.2852 57.9873L29.0459 57.9668L28.5742 57.8779V56.8525L28.916 56.8799C29.3444 56.8799 29.6771 56.7933 29.9141 56.6201C30.1556 56.4469 30.3538 56.1302 30.5088 55.6699L30.7891 54.918L28.1504 47.6035H29.5312L31.377 53.1475ZM35.1436 51.2334C35.1436 50.5088 35.2848 49.8571 35.5674 49.2783C35.8545 48.6995 36.251 48.2529 36.7568 47.9385C37.2673 47.624 37.8483 47.4668 38.5 47.4668C39.5072 47.4668 40.3206 47.8154 40.9404 48.5127C41.5648 49.21 41.877 50.1374 41.877 51.2949V51.3838C41.877 52.1038 41.738 52.751 41.46 53.3252C41.1865 53.8949 40.7923 54.3392 40.2773 54.6582C39.7669 54.9772 39.179 55.1367 38.5137 55.1367C37.5111 55.1367 36.6976 54.7881 36.0732 54.0908C35.4535 53.3936 35.1436 52.4707 35.1436 51.3223V51.2334ZM36.415 51.3838C36.415 52.2041 36.6042 52.8626 36.9824 53.3594C37.3652 53.8561 37.8757 54.1045 38.5137 54.1045C39.1562 54.1045 39.6667 53.8538 40.0449 53.3525C40.4232 52.8467 40.6123 52.1403 40.6123 51.2334C40.6123 50.4222 40.4186 49.766 40.0312 49.2646C39.6484 48.7588 39.138 48.5059 38.5 48.5059C37.8757 48.5059 37.3721 48.7542 36.9893 49.251C36.6064 49.7477 36.415 50.4587 36.415 51.3838ZM48.0293 54.2686C47.5371 54.8473 46.8148 55.1367 45.8623 55.1367C45.0739 55.1367 44.4723 54.9089 44.0576 54.4531C43.6475 53.9928 43.4401 53.3138 43.4355 52.416V47.6035H44.7002V52.3818C44.7002 53.5029 45.1559 54.0635 46.0674 54.0635C47.0335 54.0635 47.6761 53.7035 47.9951 52.9834V47.6035H49.2598V55H48.0566L48.0293 54.2686ZM54.7627 48.7383C54.5713 48.7064 54.3639 48.6904 54.1406 48.6904C53.3112 48.6904 52.7484 49.0436 52.4521 49.75V55H51.1875V47.6035H52.418L52.4385 48.458C52.8532 47.7972 53.4411 47.4668 54.2021 47.4668C54.4482 47.4668 54.6351 47.4987 54.7627 47.5625V48.7383ZM65.6523 51.3838C65.6523 52.5094 65.3949 53.4163 64.8799 54.1045C64.3649 54.7926 63.6676 55.1367 62.7881 55.1367C61.8903 55.1367 61.1839 54.8519 60.6689 54.2822V57.8438H59.4043V47.6035H60.5596L60.6211 48.4238C61.1361 47.7858 61.8516 47.4668 62.7676 47.4668C63.6562 47.4668 64.3581 47.8018 64.873 48.4717C65.3926 49.1416 65.6523 50.0736 65.6523 51.2676V51.3838ZM64.3877 51.2402C64.3877 50.4062 64.21 49.7477 63.8545 49.2646C63.499 48.7816 63.0114 48.54 62.3916 48.54C61.626 48.54 61.0518 48.8796 60.6689 49.5586V53.0928C61.0472 53.7673 61.626 54.1045 62.4053 54.1045C63.0114 54.1045 63.4922 53.8652 63.8477 53.3867C64.2077 52.9036 64.3877 52.1882 64.3877 51.2402ZM68.5303 48.499C69.0908 47.8109 69.82 47.4668 70.7178 47.4668C72.2809 47.4668 73.0693 48.3486 73.083 50.1123V55H71.8184V50.1055C71.8138 49.5723 71.6908 49.1781 71.4492 48.9229C71.2122 48.6676 70.8408 48.54 70.335 48.54C69.9248 48.54 69.5648 48.6494 69.2549 48.8682C68.945 49.0869 68.7035 49.374 68.5303 49.7295V55H67.2656V44.5H68.5303V48.499ZM74.6416 51.2334C74.6416 50.5088 74.7829 49.8571 75.0654 49.2783C75.3525 48.6995 75.749 48.2529 76.2549 47.9385C76.7653 47.624 77.3464 47.4668 77.998 47.4668C79.0052 47.4668 79.8187 47.8154 80.4385 48.5127C81.0628 49.21 81.375 50.1374 81.375 51.2949V51.3838C81.375 52.1038 81.236 52.751 80.958 53.3252C80.6846 53.8949 80.2904 54.3392 79.7754 54.6582C79.265 54.9772 78.6771 55.1367 78.0117 55.1367C77.0091 55.1367 76.1956 54.7881 75.5713 54.0908C74.9515 53.3936 74.6416 52.4707 74.6416 51.3223V51.2334ZM75.9131 51.3838C75.9131 52.2041 76.1022 52.8626 76.4805 53.3594C76.8633 53.8561 77.3737 54.1045 78.0117 54.1045C78.6543 54.1045 79.1647 53.8538 79.543 53.3525C79.9212 52.8467 80.1104 52.1403 80.1104 51.2334C80.1104 50.4222 79.9167 49.766 79.5293 49.2646C79.1465 48.7588 78.6361 48.5059 77.998 48.5059C77.3737 48.5059 76.8701 48.7542 76.4873 49.251C76.1045 49.7477 75.9131 50.4587 75.9131 51.3838ZM84.6768 45.8125V47.6035H86.0576V48.5811H84.6768V53.168C84.6768 53.4642 84.7383 53.6875 84.8613 53.8379C84.9844 53.9837 85.194 54.0566 85.4902 54.0566C85.6361 54.0566 85.8366 54.0293 86.0918 53.9746V55C85.7591 55.0911 85.4355 55.1367 85.1211 55.1367C84.556 55.1367 84.1299 54.9658 83.8428 54.624C83.5557 54.2822 83.4121 53.7969 83.4121 53.168V48.5811H82.0654V47.6035H83.4121V45.8125H84.6768ZM87.0693 51.2334C87.0693 50.5088 87.2106 49.8571 87.4932 49.2783C87.7803 48.6995 88.1768 48.2529 88.6826 47.9385C89.193 47.624 89.7741 47.4668 90.4258 47.4668C91.4329 47.4668 92.2464 47.8154 92.8662 48.5127C93.4906 49.21 93.8027 50.1374 93.8027 51.2949V51.3838C93.8027 52.1038 93.6637 52.751 93.3857 53.3252C93.1123 53.8949 92.7181 54.3392 92.2031 54.6582C91.6927 54.9772 91.1048 55.1367 90.4395 55.1367C89.4368 55.1367 88.6234 54.7881 87.999 54.0908C87.3792 53.3936 87.0693 52.4707 87.0693 51.3223V51.2334ZM88.3408 51.3838C88.3408 52.2041 88.5299 52.8626 88.9082 53.3594C89.291 53.8561 89.8014 54.1045 90.4395 54.1045C91.082 54.1045 91.5924 53.8538 91.9707 53.3525C92.349 52.8467 92.5381 52.1403 92.5381 51.2334C92.5381 50.4222 92.3444 49.766 91.957 49.2646C91.5742 48.7588 91.0638 48.5059 90.4258 48.5059C89.8014 48.5059 89.2979 48.7542 88.915 49.251C88.5322 49.7477 88.3408 50.4587 88.3408 51.3838ZM95.3477 54.3369C95.3477 54.1182 95.4115 53.9359 95.5391 53.79C95.6712 53.6442 95.8672 53.5713 96.127 53.5713C96.3867 53.5713 96.5827 53.6442 96.7148 53.79C96.8516 53.9359 96.9199 54.1182 96.9199 54.3369C96.9199 54.5465 96.8516 54.722 96.7148 54.8633C96.5827 55.0046 96.3867 55.0752 96.127 55.0752C95.8672 55.0752 95.6712 55.0046 95.5391 54.8633C95.4115 54.722 95.3477 54.5465 95.3477 54.3369ZM95.3545 48.3008C95.3545 48.082 95.4183 47.8997 95.5459 47.7539C95.6781 47.6081 95.874 47.5352 96.1338 47.5352C96.3936 47.5352 96.5895 47.6081 96.7217 47.7539C96.8584 47.8997 96.9268 48.082 96.9268 48.3008C96.9268 48.5104 96.8584 48.6859 96.7217 48.8271C96.5895 48.9684 96.3936 49.0391 96.1338 49.0391C95.874 49.0391 95.6781 48.9684 95.5459 48.8271C95.4183 48.6859 95.3545 48.5104 95.3545 48.3008Z" fill="white"/>
</svg>
